<?xml version="1.0" encoding="UTF-8" standalone="no"?>
<!-- Created with Inkscape (http://www.inkscape.org/) -->

<svg
   xmlns:dc="http://purl.org/dc/elements/1.1/"
   xmlns:cc="http://creativecommons.org/ns#"
   xmlns:rdf="http://www.w3.org/1999/02/22-rdf-syntax-ns#"
   xmlns:svg="http://www.w3.org/2000/svg"
   xmlns="http://www.w3.org/2000/svg"
   xmlns:sodipodi="http://sodipodi.sourceforge.net/DTD/sodipodi-0.dtd"
   xmlns:inkscape="http://www.inkscape.org/namespaces/inkscape"
   width="27.960512mm"
   height="27.960512mm"
   viewBox="0 0 99.072683 99.072681"
   id="svg2"
   version="1.1"
   inkscape:version="0.91 r13725"
   sodipodi:docname="logo.svg">
  <defs
     id="defs4" />
  <sodipodi:namedview
     id="base"
     pagecolor="#ffffff"
     bordercolor="#666666"
     borderopacity="1.0"
     inkscape:pageopacity="0.0"
     inkscape:pageshadow="2"
     inkscape:zoom="3.959798"
     inkscape:cx="0.69167871"
     inkscape:cy="26.920536"
     inkscape:document-units="px"
     inkscape:current-layer="g4374"
     showgrid="false"
     inkscape:window-width="1920"
     inkscape:window-height="1056"
     inkscape:window-x="0"
     inkscape:window-y="24"
     inkscape:window-maximized="1"
     fit-margin-top="5"
     fit-margin-left="5"
     fit-margin-right="5"
     fit-margin-bottom="5" />
  <metadata
     id="metadata7">
    <rdf:RDF>
      <cc:Work
         rdf:about="">
        <dc:format>image/svg+xml</dc:format>
        <dc:type
           rdf:resource="http://purl.org/dc/dcmitype/StillImage" />
        <dc:title></dc:title>
      </cc:Work>
    </rdf:RDF>
  </metadata>
  <g
     inkscape:label="Layer 1"
     inkscape:groupmode="layer"
     id="layer1"
     transform="translate(-149.54882,-330.18311)">
    <g
       style="font-style:normal;font-variant:normal;font-weight:normal;font-stretch:normal;font-size:40px;line-height:125%;font-family:Aegyptus;-inkscape-font-specification:Aegyptus;letter-spacing:0px;word-spacing:0px;fill:#000000;fill-opacity:1;stroke:none;stroke-width:1px;stroke-linecap:butt;stroke-linejoin:miter;stroke-opacity:1"
       id="flowRoot3336">
      <g
         id="g4374"
         transform="translate(72.344476,0.38505552)"
         style="fill:#ff0000"
         inkscape:export-filename="/home/emanuele/Projects/pin1n/app/ux/images/logo.png"
         inkscape:export-xdpi="97.069084"
         inkscape:export-ydpi="97.069084">
        <rect
           style="fill:#d40000;fill-opacity:1;stroke:none;stroke-width:100;stroke-miterlimit:4;stroke-dasharray:none;stroke-opacity:1"
           id="rect4434"
           width="63.63961"
           height="63.63961"
           x="94.920883"
           y="347.51459"
           rx="8.5135136"
           ry="8.5135136" />
        <g
           id="g4436"
           transform="translate(-2.1595117,4.0794925)"
           style="fill:#ffffff">
          <path
             inkscape:connector-curvature="0"
             id="path4348"
             style="font-size:50px;letter-spacing:-2.79999971px;word-spacing:-23.70002365px;fill:#ffffff"
             d="m 131.67567,355.72319 q 0,2.87265 -0.13074,8.27596 -0.13074,5.40331 -0.13074,8.27596 l 0,15.38918 q 0,0.82075 -0.0436,2.80425 -0.0436,1.98349 -0.0436,2.18868 -2.22268,-0.68397 -4.09669,0.82076 l 0,-1.29954 q 0,-4.03538 0.0872,-6.63444 0.30507,-9.16512 0.30507,-20.38211 0,0.34198 0,-2.94105 l -3.22505,3.55661 -1.48179,-4.24057 4.83758,-6.15567 0.0436,0.0684 q 0.74089,0.0684 4.00952,-0.47878 -0.13074,0.47878 -0.13074,0.75236 z" />
          <path
             inkscape:connector-curvature="0"
             id="path4350"
             style="font-style:normal;font-variant:normal;font-weight:normal;font-stretch:normal;font-family:Banksia;-inkscape-font-specification:Banksia;letter-spacing:-2.79999971px;word-spacing:-23.70002365px;fill:#ffffff"
             d="m 154.44354,387.45226 -3.48,0.72 q 0.16,-3.84 0.16,-7.64 0,-12.76 -1.72,-12.6 -2.04,0.2 -9.84,2.4 l 0.36,17.12 -3.52,0 -0.12,-21.32 3.4,-0.6 0,1.8 q 2.72,-0.68 8.76,-2.24 0.96,-0.28 1.72,-0.28 2.72,0 3.6,3.92 0.52,2.28 0.56,9.48 l 0,6.16 q 0,2.4 0.12,3.08 z" />
          <path
             id="path3380"
             style="font-style:normal;font-variant:normal;font-weight:normal;font-stretch:normal;font-family:Banksia;-inkscape-font-specification:Banksia;letter-spacing:-2.79999971px;word-spacing:-23.70002365px;fill:#ffffff;fill-opacity:1"
             d="m 121.03686,366.05897 q 1.04,3.2 1.04,7.24 0,2.88 -0.48,5.52 -0.44,2.28 -0.84,2.84 -2.04,2.88 -7.32,4.32 -3.08,0.84 -6.44,1.04 l 0,1.4 q 0,3.2 -0.04,6.4 -0.8,0.04 -2.16,0.36 -1.32,0.36 -1.28,0.36 l 0,-1.6 -0.04,-4.8 q 0,-2.72 0.04,-6.68 0.08,-3.96 0.08,-5.72 0,-3.96 -0.2,-9.4 0,-0.52 -0.04,-2.12 1.44,-0.64 3.48,-0.64 l 0.12,0 0,0.44 q 0,0.32 0,0.32 -0.04,0.72 -0.04,1.48 5.08,-2.24 6.64,-2.36 2.32,-0.16 4.76,0.36 2.48,0.48 2.72,1.24 z m -2.96,2.32 q -0.36,-0.96 -4.36,-1 -0.88,0 -6.88,2.44 -0.04,1.72 -0.04,2.8 0,1.4 0.16,11.48 8,-0.6 10.6,-3.84 0.44,-0.52 0.84,-2.44 0.48,-2.2 0.48,-4.48 0,-2.84 -0.8,-4.96 z"
             inkscape:connector-curvature="0" />
          <path
             sodipodi:nodetypes="cccccccc"
             inkscape:connector-curvature="0"
             d="m 118.84363,360.46437 -6.59108,0.4674 -7.01179,-0.10015 -1.26213,-1.469 0,-1.73608 6.59109,-0.30048 7.4325,0 z"
             style="font-style:normal;font-variant:normal;font-weight:normal;font-stretch:normal;font-family:Banksia;-inkscape-font-specification:Banksia;letter-spacing:-2.79999971px;word-spacing:-23.70002365px;fill:#ffffff"
             id="path3384" />
        </g>
      </g>
    </g>
  </g>
</svg>
