<?xml version="1.0" encoding="UTF-8" standalone="no"?>
<!-- Created with Inkscape (http://www.inkscape.org/) -->

<svg
   xmlns:dc="http://purl.org/dc/elements/1.1/"
   xmlns:cc="http://creativecommons.org/ns#"
   xmlns:rdf="http://www.w3.org/1999/02/22-rdf-syntax-ns#"
   xmlns:svg="http://www.w3.org/2000/svg"
   xmlns="http://www.w3.org/2000/svg"
   xmlns:sodipodi="http://sodipodi.sourceforge.net/DTD/sodipodi-0.dtd"
   xmlns:inkscape="http://www.inkscape.org/namespaces/inkscape"
   width="27.960512mm"
   height="27.960512mm"
   viewBox="0 0 99.072683 99.072681"
   id="svg2"
   version="1.1"
   inkscape:version="0.91 r13725"
   sodipodi:docname="logo.svg"
   inkscape:export-filename="/home/emanuele/Projects/pin1n/app/ux/images/logo.png"
   inkscape:export-xdpi="116.27827"
   inkscape:export-ydpi="116.27827">
  <defs
     id="defs4" />
  <sodipodi:namedview
     id="base"
     pagecolor="#ffffff"
     bordercolor="#666666"
     borderopacity="1.0"
     inkscape:pageopacity="0.0"
     inkscape:pageshadow="2"
     inkscape:zoom="3.959798"
     inkscape:cx="22.591471"
     inkscape:cy="38.694906"
     inkscape:document-units="px"
     inkscape:current-layer="g4295"
     showgrid="false"
     inkscape:window-width="1920"
     inkscape:window-height="1056"
     inkscape:window-x="0"
     inkscape:window-y="24"
     inkscape:window-maximized="1"
     fit-margin-top="5"
     fit-margin-left="5"
     fit-margin-right="5"
     fit-margin-bottom="5" />
  <metadata
     id="metadata7">
    <rdf:RDF>
      <cc:Work
         rdf:about="">
        <dc:format>image/svg+xml</dc:format>
        <dc:type
           rdf:resource="http://purl.org/dc/dcmitype/StillImage" />
        <dc:title />
      </cc:Work>
    </rdf:RDF>
  </metadata>
  <g
     inkscape:label="Layer 1"
     inkscape:groupmode="layer"
     id="layer1"
     transform="translate(-149.54882,-330.18311)">
    <g
       style="font-style:normal;font-variant:normal;font-weight:normal;font-stretch:normal;font-size:40px;line-height:125%;font-family:Aegyptus;-inkscape-font-specification:Aegyptus;letter-spacing:0px;word-spacing:0px;fill:#000000;fill-opacity:1;stroke:none;stroke-width:1px;stroke-linecap:butt;stroke-linejoin:miter;stroke-opacity:1"
       id="flowRoot3336">
      <g
         id="g4374"
         transform="translate(72.344476,0.38505552)"
         style="fill:#ff0000"
         inkscape:export-filename="/home/emanuele/Projects/pin1n/app/ux/images/logo.png"
         inkscape:export-xdpi="97.069084"
         inkscape:export-ydpi="97.069084">
        <g
           id="g4436"
           transform="matrix(1.2830773,0,0,1.2830773,-36.791313,-99.879388)"
           style="fill:#d40000">
          <g
             id="g4295"
             transform="translate(0.05388997,0.94054236)">
            <path
               sodipodi:nodetypes="sssas"
               inkscape:connector-curvature="0"
               id="path4288"
               d="m 156.51434,383.46129 c -1e-5,19.83088 -18.57249,24.99571 -33.79154,24.99571 -15.21904,-10e-6 -24.438999,-5.16484 -24.438999,-24.99571 0,-19.83088 9.453069,-46.38352 27.556509,-46.81826 18.6519,-0.44791 30.67403,26.98738 30.67403,46.81826 z"
               style="fill:#ff2a2a;fill-opacity:1;stroke:none;stroke-width:100;stroke-miterlimit:4;stroke-dasharray:none;stroke-opacity:1" />
            <path
               id="path4291"
               transform="matrix(0.77937632,0,0,0.77937632,88.84551,334.8804)"
               d="m 44.662109,19.541016 c -7.507991,0.0691 -14.871308,0.865915 -16.419921,2.904296 -1.723524,2.268594 2.754445,7.259644 5.27539,6.691407 20.837207,-4.69703 38.003631,0.856411 35.792969,-3.03711 -1.59095,-2.802044 -4.678816,-3.988032 -7.359375,-5.091797 -2.129196,-0.876733 -9.781071,-1.535895 -17.289063,-1.466796 z m 4.572266,14.070312 c -0.332195,-0.0082 -0.644076,-0.0055 -0.933594,0.0098 -1.544096,0.08161 -2.436813,0.512647 -2.197265,1.470703 2.070066,8.279161 3.853502,5.670254 6.880859,5.716797 25.009637,0.384488 7.581463,22.908176 -9.048828,26.660156 2.218869,-11.499027 4.045647,-22.821669 1.332031,-24.097656 -5.047654,-2.37348 -11.951971,8.796612 -19.126953,11.851562 -7.174982,3.05495 1.672921,6.520516 5.255859,5.951172 3.582939,-0.569367 9.004089,-13.034577 8.25586,-7.082031 -0.614725,4.8903 -9.339875,28.914966 -9.646485,38.785156 2.956068,0.814429 6.235784,1.268187 9.816407,1.441406 0.163309,-0.915472 0.235532,-1.985701 0.175781,-3.265625 C 39.864344,88.188506 41.239086,81.18078 42.736328,73.62894 67.592253,66.459802 87.458142,45.711932 66.855469,37.630859 63.646426,36.372148 54.2173,33.734438 49.234375,33.611328 Z"
               style="fill:#ffffff;fill-opacity:1;stroke:none;stroke-width:100;stroke-miterlimit:4;stroke-dasharray:none;stroke-opacity:1"
               inkscape:connector-curvature="0" />
          </g>
          <g
             id="g4218"
             transform="matrix(1.7966359,0,0,1.7966359,-187.38596,-216.33501)"
             style="fill:#ffffff" />
        </g>
      </g>
    </g>
  </g>
</svg>
