<?xml version="1.0" encoding="UTF-8" standalone="no"?>
<!-- Created with Inkscape (http://www.inkscape.org/) -->

<svg
   xmlns:dc="http://purl.org/dc/elements/1.1/"
   xmlns:cc="http://creativecommons.org/ns#"
   xmlns:rdf="http://www.w3.org/1999/02/22-rdf-syntax-ns#"
   xmlns:svg="http://www.w3.org/2000/svg"
   xmlns="http://www.w3.org/2000/svg"
   xmlns:sodipodi="http://sodipodi.sourceforge.net/DTD/sodipodi-0.dtd"
   xmlns:inkscape="http://www.inkscape.org/namespaces/inkscape"
   width="27.960512mm"
   height="27.960512mm"
   viewBox="0 0 99.072683 99.072681"
   id="svg2"
   version="1.1"
   inkscape:version="0.91 r13725"
   sodipodi:docname="logo.svg"
   inkscape:export-filename="/home/emanuele/Projects/pin1n/app/ux/images/logo.png"
   inkscape:export-xdpi="58.139137"
   inkscape:export-ydpi="58.139137">
  <defs
     id="defs4" />
  <sodipodi:namedview
     id="base"
     pagecolor="#ffffff"
     bordercolor="#666666"
     borderopacity="1.0"
     inkscape:pageopacity="0.0"
     inkscape:pageshadow="2"
     inkscape:zoom="5.6"
     inkscape:cx="77.731655"
     inkscape:cy="53.653793"
     inkscape:document-units="px"
     inkscape:current-layer="g4436"
     showgrid="false"
     inkscape:window-width="1920"
     inkscape:window-height="1056"
     inkscape:window-x="0"
     inkscape:window-y="24"
     inkscape:window-maximized="1"
     fit-margin-top="5"
     fit-margin-left="5"
     fit-margin-right="5"
     fit-margin-bottom="5" />
  <metadata
     id="metadata7">
    <rdf:RDF>
      <cc:Work
         rdf:about="">
        <dc:format>image/svg+xml</dc:format>
        <dc:type
           rdf:resource="http://purl.org/dc/dcmitype/StillImage" />
        <dc:title />
      </cc:Work>
    </rdf:RDF>
  </metadata>
  <g
     inkscape:label="Layer 1"
     inkscape:groupmode="layer"
     id="layer1"
     transform="translate(-149.54882,-330.18311)">
    <g
       style="font-style:normal;font-variant:normal;font-weight:normal;font-stretch:normal;font-size:40px;line-height:125%;font-family:Aegyptus;-inkscape-font-specification:Aegyptus;letter-spacing:0px;word-spacing:0px;fill:#000000;fill-opacity:1;stroke:none;stroke-width:1px;stroke-linecap:butt;stroke-linejoin:miter;stroke-opacity:1"
       id="flowRoot3336">
      <g
         id="g4374"
         transform="translate(72.344476,0.38505552)"
         style="fill:#ff0000"
         inkscape:export-filename="/home/emanuele/Projects/pin1n/app/ux/images/logo.png"
         inkscape:export-xdpi="97.069084"
         inkscape:export-ydpi="97.069084">
        <g
           id="g4436"
           transform="matrix(1.2830773,0,0,1.2830773,-36.791313,-99.879388)"
           style="fill:#d40000">
          <g
             id="g4218"
             transform="matrix(1.7966359,0,0,1.7966359,-97.597155,-287.44549)"
             style="fill:#ff2a2a">
            <path
               sodipodi:nodetypes="sscsssssccss"
               inkscape:connector-curvature="0"
               id="path4211"
               d="m 123.48579,354.50113 c 1.11059,4.44178 2.06724,3.04152 3.69143,3.06649 13.41769,0.20628 4.06722,12.29011 -4.85494,14.30305 1.19042,-6.16924 2.17121,-12.2432 0.71535,-12.92776 -2.70807,-1.27338 -6.41293,4.71909 -10.26232,6.35808 -3.84938,1.63898 0.8974,3.49838 2.81965,3.19292 1.92225,-0.30546 4.83126,-6.99271 4.42983,-3.79916 -0.40143,3.19355 -7.25675,21.60665 -4.55651,23.00663 2.70024,1.39997 4.93958,1.05857 4.74184,-3.17707 -0.0717,-1.53668 0.66562,-5.29659 1.4689,-9.34815 13.33522,-3.84624 23.994,-14.97818 12.94065,-19.31369 -2.44858,-0.96042 -11.64795,-3.41734 -11.13388,-1.36134 z"
               style="fill:#ff2a2a;fill-opacity:1;fill-rule:evenodd;stroke:none;stroke-width:0.77937633px;stroke-linecap:butt;stroke-linejoin:miter;stroke-opacity:1" />
            <path
               sodipodi:nodetypes="sssss"
               inkscape:connector-curvature="0"
               id="path4215"
               d="m 111.50784,348.86567 c -0.92467,1.21711 1.47747,3.89451 2.82996,3.58964 11.17918,-2.51995 20.38984,0.45998 19.20382,-1.6289 -0.85355,-1.5033 -2.51033,-2.14008 -3.94846,-2.73225 -2.28463,-0.94073 -16.42365,-1.41567 -18.08532,0.77151 z"
               style="fill:#ff2a2a;fill-opacity:1;fill-rule:evenodd;stroke:none;stroke-width:0.77937633px;stroke-linecap:butt;stroke-linejoin:miter;stroke-opacity:1" />
          </g>
        </g>
      </g>
    </g>
  </g>
</svg>
